<?xml version="1.0" encoding="UTF-8"?>
<!DOCTYPE svg PUBLIC "-//W3C//DTD SVG 1.1//EN" "http://www.w3.org/Graphics/SVG/1.1/DTD/svg11.dtd">
<!-- Creator: CorelDRAW X7 -->
<svg xmlns="http://www.w3.org/2000/svg" xml:space="preserve" width="254mm" height="98.0007mm" version="1.1" style="shape-rendering:geometricPrecision; text-rendering:geometricPrecision; image-rendering:optimizeQuality; fill-rule:evenodd; clip-rule:evenodd"
viewBox="0 0 65247 25174"
 xmlns:xlink="http://www.w3.org/1999/xlink">
 <defs>
  <style type="text/css">
   <![CDATA[
    .fil0 {fill:#E6E6E6}
    .fil1 {fill:#FFAA00}
    .fil2 {fill:#E6E6E6;fill-rule:nonzero}
   ]]>
  </style>
 </defs>
 <g id="Layer_x0020_1">
  <metadata id="CorelCorpID_0Corel-Layer"/>
  <g id="_553086680">
   <path class="fil0" d="M65247 21326l-12468 0 0 3848 8620 0c2117,0 3848,-1731 3848,-3848l0 0z"/>
   <path class="fil1" d="M37850 21326l12468 0 0 3848 -8619 0c-2117,0 -3849,-1731 -3849,-3848l0 0z"/>
   <path class="fil2" d="M62176 13766c-150,-1276 -227,-2427 -227,-3462l0 -10304 1292 0c1104,0 2006,904 2006,2006l0 2345 0 13379 -4355 0 -3723 -6579 -4004 -7075c77,666 133,1263 172,1795 38,533 56,1001 56,1400l0 10459 -3299 0 0 -17730 4244 0 7838 13766z"/>
   <path class="fil2" d="M39991 2732c-82,334 -203,738 -353,1207 -150,468 -262,803 -326,996l-1864 5472 5098 0 -1911 -5588c-120,-344 -228,-692 -331,-1044 -99,-352 -206,-700 -313,-1043zm-3372 10467l-1572 4531 -3716 0 5753 -15766 3950 -1964 1147 0 6443 17730 -3677 0 -1572 -4531 -6756 0z"/>
   <path class="fil2" d="M39991 2732c-82,334 -203,738 -353,1207 -150,468 -262,803 -326,996l-1864 5472 5098 0 -1911 -5588c-120,-344 -228,-692 -331,-1044 -99,-352 -206,-700 -313,-1043zm5171 5470l0 9528 -215 0 -1572 -4531 -6292 0 0 -11193 1 -42c383,-1053 601,-1964 2005,-1964l3092 0 2981 8202z"/>
   <path class="fil2" d="M22108 17984c-1627,0 -3002,-267 -4127,-799l-53 -25 -52 -26 -52 -25 -51 -27 -51 -26 -51 -27 -50 -28 -49 -27 -50 -28 -49 -29 -48 -29 -49 -29 -47 -29 -48 -30 -46 -30 -1 0 -46 -31 -46 -31 -45 -32 -46 -31 -45 -32 -88 -66 -44 -33 -43 -33 -43 -34 -43 -34 -83 -70 -82 -71 -1 0 -40 -36 0 0 -40 -36 0 0 -40 -37 0 0 -39 -37 0 0 -39 -38 -38 -37 0 -1 -76 -76 0 0 -37 -39 -110 -119 0 -1 -35 -40 0 0 -35 -40 0 -1 -35 -41 -35 -41 -34 -42 -33 -42 0 0 -33 -43 -1 0 -32 -43 -33 -43 0 0 -63 -88 -32 -44 -30 -44 -1 0 -30 -46 -30 -45 0 0 -30 -46 -29 -46 0 0 -28 -47 -29 -46 0 -1 -28 -47 -28 -47 -27 -48 -26 -48 -1 -1 -25 -47 -1 -1 -25 -47 -1 -2 -25 -47 -1 -3 -23 -46 -2 -4 -23 -45 -2 -5 -22 -45 -3 -5c-56,-118 -108,-239 -158,-362l-17 -41 -5 -12c-32,-83 -64,-167 -93,-253l-5 -17 -19 -55 -12 -36 -6 -19 -12 -36 -6 -20 -11 -35 -6 -21c-23,-74 -44,-150 -65,-226l-8 -32 -7 -26 -8 -31 -7 -27 -21 -87 -7 -30 -7 -28 -6 -30 -7 -28 -6 -32 -6 -27 -7 -32 -5 -26 -7 -34 -17 -85 -6 -36 -11 -60 -4 -23 -6 -38 -4 -23 -6 -39 -4 -21 -6 -41 -3 -20 -15 -105 -3 -18 -5 -45 -3 -17 -5 -45 -3 -17 -5 -47 -2 -16 -5 -48 -1 -14 -6 -50 -1 -14 -5 -50 -1 -13 -4 -52 -2 -12 -4 -53 -1 -11 -4 -55 0 -10 -4 -55 -1 -10 -3 -57 -1 -8 -3 -58 -1 -7 -2 -60 0 -6 -3 -61 0 -5 -2 -62 0 -5 -2 -63 0 -3 -2 -65 0 -2 -1 -66 0 -2 -1 -67 0 -69 0 -7081 0 -1999c0,-1102 903,-2006 2006,-2006l1710 0 0 10798c0,1400 331,2461 1000,3187 666,726 1646,1091 2939,1091l7 0 6 0 7 0 7 0 7 0 7 0 6 0 7 0 7 -1 1 0 6 0 6 0 7 0 7 0 6 0 7 0 7 0 7 0 6 0 2 0 5 0 7 -1 6 0 7 0 7 0 6 0 7 0 7 -1 6 0 3 0 4 0 7 0 6 0 7 0 7 0 53 -2 6 -1 26 -1 4 0 3 0 13 -1 7 0 19 -1 7 -1 19 0 7 -1 6 0 6 -1 13 0 7 -1 6 0 6 -1 1 0c1119,-77 2001,-455 2634,-1124 713,-761 1069,-1847 1069,-3269l0 -10669 3711 0 0 10897c0,1494 -313,2770 -936,3827 -627,1056 -1529,1864 -2714,2422 -1056,499 -2310,775 -3764,828l-8 1 -8 0 -8 0 -9 0 -8 1 -8 0 -8 0 -5 0 -3 1 -8 0 -9 0 -7 0 -9 1 -8 0 -8 0 -8 0 -8 1 -9 0 -8 0 -8 0 -8 0 -8 1 -8 0 -9 0 -8 0 -8 0 -8 1 -4 0 -5 0 -8 0 -8 0 -8 0 -8 0 -9 0 -8 0 -8 0 -8 1 -7 0 -2 0 -8 0 -8 0 -8 0 -9 0 -8 0 -8 1 -9 0 -8 0 -8 0 -2 0 -7 0 -8 0 -8 0 -8 0 -9 0 -8 0 -9 0 -8 0 -8 0 -5 1 -3 0 -9 0 -8 0 -8 0 -9 0 -8 0 -9 0 -8 0 -8 0 -9 0z"/>
   <path class="fil2" d="M6203 17984l-19 0 -20 0 -19 0 -19 -1 -9 0 -10 0 -19 0 -20 0 -19 0 -17 -1 -2 0 -19 0 -18 0 -20 -1 -18 0 -8 0 -11 0 -19 0 -19 -1 -19 0 -16 -1 -2 0 -19 0 -19 -1 -19 -1 -18 0 -6 -1 -12 0 -19 -1 -19 -1 -18 0 -15 -1 -3 0 -19 -1 -18 0 -19 -1 -18 -1 -5 -1 -14 0 -18 -1 -18 -1 -18 -1 -14 -1 -4 0 -18 -1 -19 -1 -18 -2 -17 0 -5 -1 -14 -1 -18 -1 -17 -1 -19 -2 -12 -1 -5 0 -18 -1 -18 -2 -18 -1 -18 -2 -2 0 -15 -1 -18 -1 -18 -2 -17 -1 -12 -1 -6 -1 -18 -1 -17 -2 -18 -2 -17 -2 -2 0 -16 -1 -17 -2 -17 -2 -18 -2 -10 0 -7 -1 -17 -2c-1279,-140 -2294,-519 -3066,-1139 -983,-794 -1641,-2083 -1967,-3861l3685 -541c151,915 434,1589 847,2031 146,159 313,290 501,391l16 9 8 4 7 4 16 8 2 1 14 7 11 5 5 3 17 8 3 1 13 6 13 6 3 2 17 7 6 3 10 4 16 7 1 0 16 7 9 4 9 3 16 7 1 0 17 6 10 4 6 2 18 7 3 1 14 5 13 5 5 1 17 6 5 2 12 4 16 4 2 1 18 6 7 2 11 3 18 5 0 1 18 4 10 3 8 2 19 5 1 1 17 4 12 3 6 1 19 5 4 1 14 3 15 4 4 0 19 5 7 1 12 2 17 4 2 0 19 4 9 1 10 2 19 4 1 0 19 3 11 1 9 2 19 3 3 0 17 3 14 2 5 0 20 3 5 0 15 2 17 2 3 1 20 2 8 1 12 1 20 2 1 0 20 2 11 1 10 0 20 2 2 0 19 1 13 1 8 1 21 1 4 0 17 1 16 0 5 0 21 1 7 0 14 1 19 0 3 0 21 0 10 1 12 0 21 0c739,0 1297,-249 1680,-743 382,-494 571,-1203 571,-2126l0 -9299 -3535 0 0 -909c0,-1046 811,-1912 1835,-1999l1014 0 3483 0 905 0 0 308 0 11808c0,1848 -524,3286 -1572,4317 -1052,1031 -2517,1551 -4406,1551z"/>
  </g>
 </g>
</svg>
